<svg version="1.2" baseProfile="tiny-ps" xmlns="http://www.w3.org/2000/svg" viewBox="0 0 20 20" width="20" height="20">
	<title>check-circle-solid-svg</title>
	<style>
		tspan { white-space:pre }
		.shp0 { fill: #ffcc00 } 
	</style>
	<path id="Layer" fill-rule="evenodd" class="shp0" d="M10 18C7.88 18 5.84 17.16 4.34 15.66C2.84 14.16 2 12.12 2 10C2 7.88 2.84 5.84 4.34 4.34C5.84 2.84 7.88 2 10 2C12.12 2 14.16 2.84 15.66 4.34C17.16 5.84 18 7.88 18 10C18 12.12 17.16 14.16 15.66 15.66C14.16 17.16 12.12 18 10 18ZM13.99 8C13.99 7.74 13.88 7.49 13.69 7.31C13.51 7.12 13.26 7.01 13 7.01C12.73 7.01 12.48 7.11 12.29 7.29L9 10.59L7.71 9.29C7.52 9.11 7.27 9.01 7 9.01C6.74 9.01 6.49 9.12 6.31 9.31C6.12 9.49 6.01 9.74 6.01 10C6.01 10.27 6.11 10.52 6.29 10.71L8.29 12.71C8.39 12.8 8.5 12.87 8.62 12.92C8.74 12.97 8.87 13 9 13C9.13 13 9.26 12.97 9.38 12.92C9.5 12.87 9.61 12.8 9.71 12.71L13.71 8.71C13.89 8.52 13.99 8.27 13.99 8Z" />
</svg>