<svg version="1.2" baseProfile="tiny-ps" xmlns="http://www.w3.org/2000/svg" viewBox="0 0 512 512" width="512" height="512">
	<title>phone-solid-yellow-svg</title>
	<style>
		tspan { white-space:pre }
		.shp0 { fill: #ffcc00 } 
		.shp1 { fill: #000818 } 
	</style>
	<path id="Layer 1" class="shp0" d="M256 512.11C116.09 512.11 3 397.63 3 256C3 114.37 116.09 -0.11 256 -0.11C395.91 -0.11 509 114.37 509 256C509 397.63 395.91 512.11 256 512.11Z" />
	<path id="Layer" class="shp1" d="M387.16 128.15L329.7 114.89C323.46 113.45 317.05 116.71 314.51 122.57L287.99 184.45C285.67 189.86 287.21 196.22 291.8 199.92L325.28 227.32C305.39 269.7 270.64 304.95 227.38 325.23L199.97 291.75C196.22 287.16 189.92 285.61 184.5 287.93L122.62 314.45C116.71 317.05 113.45 323.46 114.89 329.7L128.15 387.16C129.53 393.13 134.83 397.44 141.08 397.44C282.57 397.44 397.44 282.79 397.44 141.08C397.44 134.89 393.19 129.53 387.16 128.15Z" />
</svg>